<?xml version="1.0" encoding="UTF-8"?>
<svg id="Layer_2" xmlns="http://www.w3.org/2000/svg" fill="#46b974" viewBox="0 0 59.09 39.56">
  <g>
    <path
      d="M28.11,16.06c-.91-.28-2.07-.42-3.49-.42-2.64,0-4.78.69-6.43,2.08-1.86,1.55-2.8,3.79-2.8,6.71,0,2.28.74,4.15,2.21,5.6,1.48,1.46,3.41,2.19,5.8,2.19,1.63,0,3.18-.4,4.65-1.21-.17.68-.45,1.92-.84,3.74-.23,1.2-.45,2.46-.67,3.76-1.85.71-4.21,1.06-7.1,1.06-5.23,0-9.7-1.76-13.41-5.27C2.01,30.47,0,25.48,0,19.35c0-5.67,1.73-10.26,5.2-13.76C8.89,1.86,14,0,20.51,0c3.13,0,5.4.18,6.8.54l.79,15.51Z" />
    <path
      d="M59.09.78l-1.02,15.56c-.61-.1-1.9-.24-3.88-.42-1.19-.05-2.59-.08-4.21-.1l-.42,7.97c1.7.03,4.32-.09,7.87-.37-.17.74-.42,1.96-.77,3.66-.18,1.01-.38,2.22-.59,3.64-.46-.1-1.53-.25-3.19-.45-1.24-.1-2.46-.13-3.66-.1l-.2,8.61h-13.88l-.77-19.4c-.13-4.45-.5-10.66-1.11-18.61h25.83Z" />
  </g>
</svg>