<?xml version="1.0" encoding="UTF-8"?>
<svg id="Layer_2" xmlns="http://www.w3.org/2000/svg" fill="#46b974" viewBox="0 0 403.92 41.74">
  <g>
    <path
      d="M28.11,17.02c-.91-.28-2.07-.42-3.49-.42-2.64,0-4.78.69-6.43,2.08-1.86,1.55-2.8,3.79-2.8,6.71,0,2.28.74,4.15,2.21,5.6,1.48,1.46,3.41,2.19,5.8,2.19,1.63,0,3.18-.4,4.65-1.21-.17.68-.45,1.92-.84,3.74-.23,1.2-.45,2.46-.67,3.76-1.85.71-4.21,1.06-7.1,1.06-5.23,0-9.7-1.76-13.41-5.27C2.01,31.43,0,26.45,0,20.31c0-5.67,1.73-10.26,5.2-13.76C8.89,2.83,14,.96,20.51.96c3.13,0,5.4.18,6.8.54l.79,15.51Z" />
    <path
      d="M63.49,15.69c0,3.04-.85,5.72-2.55,8.07-1.5,2.05-3.38,3.51-5.64,4.4.48.74,1.66,2.3,3.54,4.68.94,1.09,2.38,2.52,4.31,4.3-.78.28-2.48.99-5.12,2.13-1.85.84-3.59,1.67-5.22,2.47-.48-.59-1.54-2.13-3.19-4.6-.76-1.25-1.87-3.36-3.34-6.33h-.05l-.25,8.66h-13.93c-.18-3.6-.44-9.53-.77-17.79-.15-4.87-.49-11.6-1.01-20.21,4.54-.48,8.68-.72,12.42-.72,13.87,0,20.81,4.98,20.81,14.94ZM52.26,21.03c0-1.57-.66-2.69-1.98-3.36-.97-.5-2.19-.71-3.66-.64l-.15,8.46c1.37,0,2.59-.31,3.66-.92,1.42-.79,2.13-1.97,2.13-3.54Z" />
    <path
      d="M98.1,19.65c0,5.82-1.5,10.75-4.5,14.77-3.15,4.21-7.18,6.31-12.1,6.31s-9.16-2.12-12.3-6.36c-2.95-3.99-4.43-8.9-4.43-14.72,0-6.22,1.61-11.1,4.82-14.65,3.03-3.33,7-5,11.9-5s8.74,1.67,11.78,5.02c3.22,3.56,4.82,8.44,4.82,14.62ZM86.2,24c0-4.59-1.55-6.88-4.65-6.88s-4.53,2.31-4.53,6.93c0,1.85.4,3.57,1.19,5.17.89,1.8,1.99,2.7,3.29,2.7s2.39-.92,3.36-2.75c.89-1.67,1.34-3.39,1.34-5.17Z" />
    <path
      d="M150.95,1.46c-1.45,4.07-3.71,10.76-6.78,20.07-1.34,4.32-3.11,10.3-5.32,17.94h-8.88c-.82-3.46-2.31-9.38-4.45-17.74-1.35,4.3-3.18,10.22-5.47,17.74h-8.76c-1.06-3.78-2.86-9.95-5.42-18.51-1.5-4.7-3.72-11.2-6.66-19.5h16.87c.35,1.62.96,4.23,1.83,7.84l2.62,9.9c.48-1.37,1.19-3.75,2.13-7.15-.78-2.89-1.77-6.42-2.97-10.59h15.34c.26,1.58.7,4.15,1.31,7.69.45,2.36,1.06,5.71,1.83,10.05l2.55-10.09c.46-1.91,1-4.46,1.61-7.65h8.61Z" />
    <path
      d="M186.01,20.76c0,5.96-1.85,10.64-5.54,14.05-3.81,3.55-9.18,5.32-16.11,5.32-4.45,0-7.89-.22-10.32-.67l-.67-18.38c-.21-4.72-.6-11.22-1.16-19.52,3.58-.51,7.31-.77,11.21-.77,6.94,0,12.38,1.62,16.31,4.85,4.19,3.46,6.28,8.5,6.28,15.12ZM175.87,23.8c0-2.42-.78-4.21-2.35-5.37-1.3-.96-2.97-1.39-5-1.31l-.35,15.51c2.11-.13,3.83-.82,5.17-2.05,1.68-1.53,2.52-3.79,2.52-6.78Z" />
    <path
      d="M213.72,1.46l-1.02,15.56c-.61-.1-1.9-.24-3.88-.42-1.19-.05-2.59-.08-4.21-.1l-.42,7.97c1.7.03,4.32-.09,7.87-.37-.17.74-.42,1.96-.77,3.66-.18,1.01-.38,2.22-.59,3.64-.46-.1-1.53-.25-3.19-.45-1.24-.1-2.46-.13-3.66-.1l-.2,8.61h-13.88l-.77-19.4c-.13-4.45-.5-10.66-1.11-18.61h25.83Z" />
    <path
      d="M249.06,1.46l-.57,16.01c-.17,4.57-.25,11.48-.25,20.73-4.22,1.52-8.53,2.28-12.92,2.28-5.41,0-9.53-1.08-12.35-3.24-2.39-1.83-4.08-4.68-5.07-8.56-.58-2.23-1.12-6.3-1.63-12.22-.5-5.48-.8-10.47-.92-14.99h15.96c-.08,2.18-.18,5.72-.3,10.64-.05,2.74-.03,6.62.05,11.65.02,3.83.35,6.41.99,7.74.68,1.42,2.03,2.13,4.06,2.13.58,0,1.22-.17,1.93-.5,0-3.4-.1-8.8-.3-16.21-.17-3.71-.47-8.87-.92-15.46h12.22Z" />
    <path
      d="M281.49,1.46c-.23,3.33-.55,9.15-.96,17.44-.25,6.1-.45,13.12-.62,21.06-2.16-1.7-5.45-4.23-9.87-7.6-1.91-1.34-4.77-3.34-8.56-6.01l-.25,13.11h-7.97c-.13-3.35-.44-9.67-.92-18.95-.41-7.52-.83-13.87-1.26-19.05h12.42l9.2,8.71c0-2-.03-3.56-.1-4.7-.05-1.01-.15-2.34-.3-4.01h9.18Z" />
    <path
      d="M317.32,20.76c0,5.96-1.85,10.64-5.54,14.05-3.81,3.55-9.18,5.32-16.11,5.32-4.45,0-7.89-.22-10.32-.67l-.67-18.38c-.21-4.72-.6-11.22-1.16-19.52,3.58-.51,7.32-.77,11.21-.77,6.94,0,12.38,1.62,16.31,4.85,4.19,3.46,6.28,8.5,6.28,15.12ZM307.18,23.8c0-2.42-.78-4.21-2.35-5.37-1.3-.96-2.97-1.39-5-1.31l-.35,15.51c2.11-.13,3.83-.82,5.17-2.05,1.68-1.53,2.52-3.79,2.52-6.78Z" />
    <path
      d="M336.37,1.46l-.96,20.21c-.18,4.35-.4,10.28-.64,17.79h-13.88l-1.68-38h17.17Z" />
    <path
      d="M368.81,1.46c-.23,3.33-.55,9.15-.96,17.44-.25,6.1-.45,13.12-.62,21.06-2.16-1.7-5.45-4.23-9.87-7.6-1.91-1.34-4.77-3.34-8.56-6.01l-.25,13.11h-7.97c-.13-3.35-.44-9.67-.92-18.95-.41-7.52-.83-13.87-1.26-19.05h12.42l9.2,8.71c0-2-.03-3.56-.1-4.7-.05-1.01-.15-2.34-.3-4.01h9.18Z" />
    <path
      d="M403.92,23.21c-.17,1.4-.41,4.05-.74,7.94-.17,2.33-.32,5.08-.47,8.26-2.21.64-5.44.96-9.67.96-6.3,0-11.42-1.42-15.36-4.25-4.65-3.38-6.98-8.41-6.98-15.09s2.04-11.4,6.11-14.99c3.83-3.38,8.87-5.07,15.12-5.07,2.36,0,4.89.18,7.6.54l1.36,15.61c-1.09-.41-2.64-.62-4.65-.62-2.56,0-4.87.78-6.93,2.35-2.31,1.77-3.46,4.01-3.46,6.73,0,2.57.98,4.56,2.94,5.96,1.65,1.19,3.55,1.75,5.72,1.68l-.4-4.97c-.1-1.02-.32-2.71-.67-5.05h10.49Z" />
  </g>
</svg>